<?xml version="1.0" standalone="no"?>
<!DOCTYPE svg PUBLIC "-//W3C//DTD SVG 20010904//EN"
 "http://www.w3.org/TR/2001/REC-SVG-20010904/DTD/svg10.dtd">
<svg version="1.0" xmlns="http://www.w3.org/2000/svg"
 width="676.000000pt" height="676.000000pt" viewBox="0 0 676.000000 676.000000"
 preserveAspectRatio="xMidYMid meet">
<metadata>
Created by potrace 1.14, written by Peter Selinger 2001-2017
</metadata>
<g transform="translate(0.000000,676.000000) scale(0.100000,-0.100000)"
fill="#000000" stroke="none">
<path d="M0 3861 l0 -2900 65 -1 c54 -2 286 -1 355 0 11 0 26 0 33 0 6 0 125
3 262 6 309 8 266 8 424 0 73 -4 159 -13 191 -20 34 -8 63 -10 71 -5 8 5 66 6
129 3 63 -3 222 -6 352 -7 131 -1 238 -5 238 -8 0 -14 114 -31 233 -34 72 -2
148 -6 167 -9 31 -5 126 -14 158 -16 26 -1 12 -30 -15 -31 -86 -2 -103 -3
-103 -10 0 -6 -41 -12 -142 -22 -14 -1 -24 -5 -22 -9 9 -15 -50 -21 -80 -8
-17 7 -44 13 -61 14 -18 0 -29 6 -28 13 4 17 -264 11 -296 -6 -16 -9 -26 -9
-36 -1 -10 8 -14 8 -17 -1 -3 -8 -9 -9 -19 -3 -8 5 -16 9 -19 9 -3 1 -36 5
-75 9 -38 4 -80 10 -92 13 -15 3 -30 -3 -46 -21 -23 -24 -57 -28 -57 -6 0 4
-14 13 -31 19 -21 7 -29 15 -26 26 9 23 -11 28 -59 15 -32 -9 -47 -10 -57 -2
-17 15 -58 3 -55 -15 5 -25 -106 -28 -140 -4 -32 23 -112 38 -112 22 0 -6 -11
-8 -28 -5 -20 4 -34 0 -46 -11 -19 -20 -122 -23 -140 -5 -5 5 -16 10 -23 10
-8 0 -27 9 -42 21 -33 24 -72 26 -180 10 -51 -8 -90 -9 -120 -2 -40 8 -50 7
-86 -15 -23 -13 -54 -24 -68 -24 -19 0 -27 -5 -27 -17 0 -30 -15 -2 -16 30 -1
29 -3 32 -28 29 -15 -2 -38 4 -51 12 -16 11 -26 12 -31 5 -3 -6 -21 -8 -43 -4
-24 4 -47 1 -69 -11 -27 -13 -39 -14 -58 -5 -14 6 -27 11 -29 11 -3 0 -5 -202
-5 -450 l0 -450 3380 0 3380 0 0 1103 c-1 1097 -1 1102 -20 1078 -23 -26 -24
-24 -10 14 5 14 14 23 20 20 6 -4 10 35 9 112 0 75 -4 111 -9 98 -5 -11 -9
-37 -9 -59 -1 -28 -5 -37 -15 -33 -17 7 -31 -221 -16 -273 8 -25 7 -41 -2 -58
-9 -17 -9 -27 2 -46 27 -52 -9 -156 -44 -127 -11 9 -12 19 -5 41 6 16 9 41 6
57 l-4 28 -8 -33 c-10 -43 -24 -50 -46 -24 -9 12 -27 22 -38 22 -12 0 -21 6
-21 15 0 8 -4 15 -10 15 -5 0 -10 7 -10 15 0 9 -7 18 -16 22 -8 3 -13 12 -10
19 3 8 1 14 -4 14 -17 0 -11 39 10 60 23 23 26 50 6 50 -7 0 -26 -24 -41 -54
-24 -48 -30 -53 -49 -46 -16 6 -20 15 -18 36 3 24 1 26 -12 15 -9 -7 -21 -9
-28 -5 -7 5 -23 7 -35 5 -19 -2 -23 2 -23 28 0 36 -15 48 -29 24 -5 -10 -13
-15 -16 -11 -4 4 -17 3 -30 -2 -28 -10 -39 -2 -23 17 8 10 8 17 1 24 -8 8 -13
7 -17 0 -4 -6 -11 -11 -17 -11 -14 0 -11 20 6 37 9 8 14 18 11 21 -8 8 -36
-19 -36 -34 0 -17 -34 -18 -60 -2 -16 10 -24 10 -40 0 -20 -12 -61 -1 -59 16
3 19 -2 23 -16 12 -13 -11 -18 -10 -30 6 -13 16 -16 17 -25 4 -6 -10 -10 -11
-10 -2 0 7 -14 12 -34 12 -19 0 -41 7 -50 15 -8 8 -28 15 -45 15 -31 0 -65 25
-56 41 6 8 -28 14 -66 11 -12 -1 -18 11 -22 43 -4 25 -4 52 0 61 4 12 2 15 -8
12 -8 -3 -14 -17 -14 -31 1 -15 -3 -27 -7 -27 -8 0 -10 6 -12 33 -1 6 -5 15
-11 19 -6 5 -5 12 3 20 18 18 15 40 -6 34 -38 -13 -46 65 -8 80 8 3 12 12 9
20 -4 12 -9 10 -23 -6 -20 -23 -39 -28 -20 -6 9 12 7 18 -9 32 -14 13 -18 25
-14 46 4 21 2 28 -10 28 -11 0 -13 6 -10 21 4 14 0 26 -10 34 -14 10 -14 14
-1 40 16 30 45 56 56 49 4 -2 10 0 13 6 4 6 -7 15 -24 21 -17 6 -31 17 -31 25
0 9 -12 14 -35 14 -32 0 -35 2 -31 25 3 13 7 29 11 34 10 17 8 100 -3 114 -6
7 -9 24 -6 38 4 17 3 20 -4 11 -7 -11 -10 -9 -15 7 -8 33 14 37 41 6 19 -23
26 -25 33 -14 14 22 16 20 -61 78 l-25 19 24 21 c30 26 65 27 90 2 16 -16 20
-17 25 -5 3 8 17 14 31 14 15 0 36 5 47 11 16 8 23 8 29 -2 8 -11 11 -11 20 4
5 9 17 17 24 17 17 0 20 16 4 25 -6 4 -7 19 -4 36 6 25 3 29 -14 29 -11 0 -24
8 -30 18 -9 16 -11 16 -25 -3 -16 -22 -20 -20 -30 12 -6 18 -3 20 12 16 11 -2
23 0 26 6 4 6 -4 13 -16 16 -15 4 -24 14 -24 25 0 14 4 16 13 9 7 -6 16 -8 22
-5 5 3 21 2 35 -3 18 -7 33 -6 55 5 36 18 40 44 10 62 -19 12 -20 14 -4 26 15
11 14 13 -9 26 -33 17 -33 29 -1 22 14 -2 25 -9 25 -14 0 -5 5 -6 10 -3 6 3
18 -2 28 -11 16 -17 17 -17 20 3 2 13 12 23 28 26 13 2 24 1 24 -2 0 -12 49
-28 62 -20 7 5 8 9 2 9 -7 0 -9 11 -6 28 4 22 2 25 -9 15 -7 -7 -25 -13 -40
-13 -21 0 -28 6 -32 27 -3 15 -3 32 0 39 5 12 27 13 39 1 4 -4 11 -7 16 -7 16
0 8 20 -17 42 -32 28 -32 46 2 59 22 8 30 7 40 -7 7 -10 13 -26 13 -35 0 -10
8 -23 18 -28 9 -6 13 -11 7 -11 -10 0 15 -20 26 -20 16 0 19 52 4 66 -8 9 -15
21 -15 29 0 7 -6 16 -12 18 -10 4 -9 8 2 17 13 10 12 11 -5 7 -11 -3 -28 -8
-37 -12 -13 -5 -18 -2 -18 10 0 11 5 15 15 11 9 -3 19 3 25 14 6 12 19 19 32
17 19 -2 22 3 23 35 1 24 10 46 24 60 40 41 90 116 112 170 13 29 33 73 46 97
39 74 28 84 -48 45 -14 -7 -35 -11 -45 -8 -11 3 -35 -6 -57 -20 -21 -14 -50
-29 -65 -32 -15 -4 -36 -13 -47 -20 -11 -8 -29 -14 -42 -14 -12 0 -25 -4 -28
-10 -3 -5 -16 -10 -28 -10 -23 0 -278 -83 -309 -100 -10 -6 -26 -10 -35 -10
-10 0 -27 -7 -37 -15 -11 -8 -30 -15 -42 -15 -13 0 -25 -4 -28 -9 -6 -9 -93
-41 -178 -65 -63 -18 -144 -21 -182 -6 -19 7 -29 5 -42 -7 -14 -15 -18 -15
-43 0 -24 14 -28 14 -51 -3 -17 -13 -43 -18 -93 -19 -38 0 -73 -4 -78 -7 -6
-3 -16 -1 -23 5 -17 15 -148 23 -195 12 -28 -6 -45 -4 -71 11 -19 10 -47 18
-62 18 -15 0 -39 5 -55 11 -45 18 -83 21 -98 9 -9 -8 -20 -8 -32 -2 -10 5 -38
13 -63 16 -70 11 -193 48 -212 63 -30 27 -71 217 -83 393 -15 213 -41 337 -99
460 -33 70 -134 180 -165 180 -10 0 -26 9 -36 20 -10 11 -24 20 -30 20 -7 0
-16 10 -19 23 -6 21 -7 21 -20 3 -10 -11 -19 -15 -28 -10 -27 17 -67 12 -89
-12 -12 -13 -28 -24 -35 -24 -7 0 -28 -13 -46 -30 -18 -16 -36 -30 -40 -30
-10 0 -89 -79 -124 -125 -17 -22 -51 -73 -75 -113 -24 -41 -54 -90 -67 -110
-38 -63 -78 -143 -122 -247 -33 -76 -45 -120 -51 -185 -6 -56 -15 -94 -28
-110 -10 -14 -26 -40 -35 -58 -13 -26 -22 -33 -38 -29 -16 4 -23 -1 -31 -24
-7 -17 -19 -29 -30 -29 -10 0 -29 -8 -43 -17 -15 -10 -48 -17 -78 -18 -28 0
-57 -4 -64 -8 -7 -5 -12 -3 -12 7 0 22 -9 20 -37 -6 -13 -12 -23 -16 -23 -10
0 7 -12 10 -33 8 -17 -2 -37 0 -44 5 -6 6 -14 6 -17 1 -2 -4 -21 -6 -40 -4
-20 2 -34 8 -31 12 3 5 0 12 -6 16 -6 3 -15 1 -19 -6 -4 -7 -12 -10 -18 -6 -6
3 -12 1 -14 -6 -3 -9 -13 -8 -39 4 -44 21 -65 23 -114 13 -22 -5 -43 -8 -47
-7 -5 1 -8 -2 -8 -8 0 -5 -7 -7 -15 -4 -9 4 -15 1 -15 -7 0 -8 -9 -4 -23 9
-17 16 -26 19 -34 11 -6 -6 -34 -10 -62 -8 -40 3 -52 1 -56 -12 -4 -12 -15
-15 -43 -13 -20 1 -40 -2 -44 -9 -5 -8 -14 -8 -33 1 -24 11 -27 11 -21 -3 4
-12 0 -14 -20 -9 -19 5 -29 1 -41 -16 -10 -14 -22 -20 -34 -17 -11 3 -24 -2
-32 -13 -7 -10 -21 -19 -32 -22 -11 -2 -19 -11 -19 -19 1 -11 -9 -16 -32 -17
-35 -1 -94 -44 -94 -68 0 -8 -6 -11 -15 -8 -8 4 -15 1 -15 -5 0 -6 -6 -11 -13
-11 -8 0 -22 -9 -32 -20 -10 -11 -25 -20 -34 -20 -9 0 -27 -13 -41 -30 -14
-16 -32 -30 -40 -30 -8 0 -21 -13 -28 -30 -10 -21 -21 -30 -38 -30 -15 0 -24
-6 -24 -15 0 -8 -7 -15 -15 -15 -8 0 -17 -11 -21 -25 -4 -16 -13 -25 -26 -25
-10 0 -16 -5 -13 -10 3 -6 -1 -13 -9 -16 -9 -3 -14 -10 -11 -14 3 -4 -1 -7 -8
-6 -6 0 -13 -3 -14 -9 -1 -5 -11 -12 -22 -17 -24 -8 -28 -38 -6 -38 8 0 15 -5
15 -11 0 -6 -10 -9 -22 -6 -13 3 -32 2 -42 -2 -18 -7 -18 -8 5 -24 l23 -17
-22 0 c-12 0 -21 -3 -19 -8 1 -4 -8 -18 -20 -32 -13 -13 -23 -28 -23 -32 0 -5
-4 -6 -10 -3 -5 3 -10 -4 -10 -15 0 -16 -5 -20 -15 -16 -10 4 -15 -1 -15 -15
0 -11 -7 -22 -15 -25 -29 -11 -16 -31 18 -27 32 4 32 4 10 -13 -15 -10 -23
-27 -23 -46 0 -21 -6 -31 -23 -37 -29 -11 -45 -1 -24 14 23 17 21 25 -6 25
-18 0 -24 -8 -33 -45 -6 -25 -6 -49 -2 -53 5 -5 -2 -16 -16 -26 -15 -9 -26
-22 -26 -30 0 -7 -9 -21 -20 -31 -25 -22 -26 -54 -3 -70 17 -13 17 -14 0 -32
-9 -11 -14 -22 -11 -26 3 -3 -9 -13 -28 -23 -18 -9 -27 -19 -21 -21 10 -4 9
-12 -3 -34 -15 -29 -34 -31 -34 -3 0 19 -6 18 -30 -6 -21 -21 -27 -35 -10 -25
5 3 10 -1 10 -10 0 -9 -4 -14 -9 -11 -5 3 -11 -1 -15 -9 -3 -8 -12 -15 -20
-15 -8 0 -18 -9 -21 -21 -4 -11 -9 -18 -11 -16 -7 6 18 57 27 57 4 0 10 13 14
30 4 16 11 30 16 30 6 0 8 9 4 20 -4 13 2 27 18 44 14 14 23 27 20 30 -3 3 1
12 10 20 8 8 18 12 22 8 3 -4 4 5 0 20 -7 28 26 98 46 98 6 0 8 8 4 19 -4 13
3 26 24 43 23 20 28 31 24 53 -3 15 -1 30 5 34 6 4 12 31 12 61 1 122 -5 266
-12 276 -4 6 -1 25 7 42 12 24 13 35 4 56 -9 19 -9 29 0 39 6 8 8 27 5 45 -4
17 -2 44 3 59 6 16 7 38 2 51 -6 15 -4 30 3 42 10 15 10 27 0 53 -15 43 -15
47 3 47 20 0 19 39 -1 62 -13 14 -14 21 -5 32 8 9 10 28 5 50 -4 24 -1 50 11
78 11 28 13 44 6 46 -15 5 -14 32 0 32 8 0 9 16 5 53 -9 72 -9 74 5 150 9 49
9 74 1 90 -16 34 -21 114 -7 139 16 31 25 68 16 68 -3 0 -6 30 -5 68 3 92 2
89 21 108 16 15 16 17 0 29 -15 10 -16 20 -7 63 9 47 0 148 -15 172 -3 5 0 22
8 36 11 20 12 34 4 54 -8 22 -7 33 10 56 33 48 36 64 10 61 -17 -1 -21 3 -19
18 8 50 8 142 0 158 -6 12 -4 33 7 61 13 33 14 49 6 64 -8 16 -7 25 8 44 19
23 19 23 -1 56 -18 29 -19 35 -5 50 8 9 18 32 22 49 6 28 4 32 -10 27 -13 -6
-15 -2 -8 22 4 16 7 41 7 56 -1 20 3 25 15 20 14 -5 14 -3 2 11 -7 9 -11 23
-8 32 4 8 2 17 -3 20 -6 4 -10 26 -10 51 0 28 4 43 10 39 6 -3 10 -2 10 4 0 5
-4 12 -9 15 -5 3 -7 27 -4 53 3 27 4 63 4 82 -1 19 6 42 15 52 22 24 22 91 0
124 -27 40 -8 97 31 94 14 -1 23 43 12 63 -6 11 -7 23 -3 26 4 4 9 1 11 -6 4
-10 8 -8 18 5 11 14 11 21 0 36 -10 14 -11 27 -4 45 10 26 -1 42 -28 42 -7 0
-13 8 -13 18 0 14 2 15 10 2 9 -13 11 -13 20 0 15 24 12 37 -12 44 -13 3 -177
6 -365 6 l-343 0 0 -2899z m5627 -336 c5 -8 24 -16 43 -18 22 -1 35 -8 35 -16
0 -23 -44 -19 -71 6 -14 12 -30 23 -35 23 -6 0 -7 5 -4 10 9 14 23 12 32 -5z
m-189 -511 c6 -10 5 -32 -1 -55 -16 -66 -86 -65 -70 1 13 60 52 89 71 54z
m-4808 -274 c0 -5 8 -10 18 -10 13 0 14 -2 4 -9 -7 -4 -21 -23 -30 -42 -10
-21 -26 -35 -39 -37 -28 -4 -30 9 -3 26 12 7 20 23 20 40 0 16 3 32 7 35 10
10 23 8 23 -3z m-328 -222 c-7 -7 -12 -8 -12 -2 0 14 12 26 19 19 2 -3 -1 -11
-7 -17z m38 -22 c0 -3 -4 -8 -10 -11 -5 -3 -10 -1 -10 4 0 6 5 11 10 11 6 0
10 -2 10 -4z m6407 -258 c-3 -7 -5 -2 -5 12 0 14 2 19 5 13 2 -7 2 -19 0 -25z
m-2701 -59 c10 -17 -13 -36 -27 -22 -12 12 -4 33 11 33 5 0 12 -5 16 -11z
m2697 -60 c-4 -16 -8 -17 -14 -7 -13 19 -11 28 5 28 9 0 12 -7 9 -21z m-1663
-94 c0 -8 -7 -15 -15 -15 -8 0 -15 7 -15 15 0 8 7 15 15 15 8 0 15 -7 15 -15z
m-4780 -1008 c0 -18 -2 -19 -10 -7 -13 20 -13 43 0 35 6 -3 10 -16 10 -28z
m-30 -163 c0 -8 -5 -12 -10 -9 -6 4 -8 11 -5 16 9 14 15 11 15 -7z m-140 -13
c0 -12 -20 -25 -27 -18 -7 7 6 27 18 27 5 0 9 -4 9 -9z m2685 -13 c7 -8 4 -9
-8 -4 -10 3 -34 6 -53 6 -23 0 -33 4 -28 11 7 13 74 3 89 -13z"/>
<path d="M5857 6693 c-4 -3 -7 -13 -7 -22 1 -13 3 -13 11 2 11 19 8 33 -4 20z"/>
<path d="M6445 6620 c3 -5 8 -10 11 -10 2 0 4 5 4 10 0 6 -5 10 -11 10 -5 0
-7 -4 -4 -10z"/>
<path d="M6367 6614 c-8 -14 3 -54 14 -54 11 0 11 17 0 44 -4 11 -10 15 -14
10z"/>
<path d="M6570 6585 c0 -8 5 -15 10 -15 6 0 10 7 10 15 0 8 -4 15 -10 15 -5 0
-10 -7 -10 -15z"/>
<path d="M6651 6444 c0 -11 3 -14 6 -6 3 7 2 16 -1 19 -3 4 -6 -2 -5 -13z"/>
<path d="M715 6429 c-4 -6 -5 -12 -2 -15 2 -3 7 2 10 11 7 17 1 20 -8 4z"/>
<path d="M6490 6370 c0 -5 5 -10 10 -10 6 0 10 5 10 10 0 6 -4 10 -10 10 -5 0
-10 -4 -10 -10z"/>
<path d="M5671 6324 c0 -11 3 -14 6 -6 3 7 2 16 -1 19 -3 4 -6 -2 -5 -13z"/>
<path d="M6170 6298 c0 -19 2 -20 10 -8 13 19 13 30 0 30 -5 0 -10 -10 -10
-22z"/>
<path d="M6752 6090 c0 -19 2 -27 5 -17 2 9 2 25 0 35 -3 9 -5 1 -5 -18z"/>
<path d="M6676 5921 c-4 -7 -5 -15 -2 -18 9 -9 19 4 14 18 -4 11 -6 11 -12 0z"/>
<path d="M6131 5674 c0 -11 3 -14 6 -6 3 7 2 16 -1 19 -3 4 -6 -2 -5 -13z"/>
<path d="M6281 5653 c-1 -17 4 -35 9 -38 12 -7 12 22 0 50 -7 17 -9 15 -9 -12z"/>
<path d="M6635 5633 c3 -21 11 -42 17 -48 7 -7 9 -2 4 15 -3 14 -6 35 -6 48 0
12 -5 22 -11 22 -8 0 -9 -13 -4 -37z"/>
<path d="M6070 5541 c0 -5 -3 -16 -6 -25 -3 -9 -2 -16 4 -16 13 0 23 38 11 46
-5 3 -9 1 -9 -5z"/>
<path d="M4540 5480 c0 -5 5 -10 10 -10 6 0 10 5 10 10 0 6 -4 10 -10 10 -5 0
-10 -4 -10 -10z"/>
<path d="M6243 5465 c-6 -6 -7 -18 -3 -25 6 -9 10 -7 15 9 8 27 4 33 -12 16z"/>
<path d="M6671 5444 c0 -11 3 -14 6 -6 3 7 2 16 -1 19 -3 4 -6 -2 -5 -13z"/>
<path d="M6752 5120 c0 -14 2 -19 5 -12 2 6 2 18 0 25 -3 6 -5 1 -5 -13z"/>
<path d="M6752 5040 c0 -14 2 -19 5 -12 2 6 2 18 0 25 -3 6 -5 1 -5 -13z"/>
<path d="M6511 5014 c0 -11 3 -14 6 -6 3 7 2 16 -1 19 -3 4 -6 -2 -5 -13z"/>
<path d="M6743 4995 c-15 -17 -17 -29 -4 -21 5 4 12 0 14 -6 3 -7 6 -1 6 15 1
31 1 31 -16 12z"/>
<path d="M6350 4980 c0 -19 3 -21 12 -12 9 9 9 15 0 24 -9 9 -12 7 -12 -12z"/>
<path d="M630 4783 c0 -4 5 -15 10 -23 8 -13 10 -13 10 2 0 9 -4 20 -10 23 -5
3 -10 3 -10 -2z"/>
<path d="M6752 4555 c0 -16 2 -22 5 -12 2 9 2 23 0 30 -3 6 -5 -1 -5 -18z"/>
<path d="M6320 4491 c0 -6 5 -13 10 -16 6 -3 10 1 10 9 0 9 -4 16 -10 16 -5 0
-10 -4 -10 -9z"/>
<path d="M6662 4380 c0 -14 2 -19 5 -12 2 6 2 18 0 25 -3 6 -5 1 -5 -13z"/>
<path d="M6620 4315 c0 -14 5 -25 10 -25 6 0 10 11 10 25 0 14 -4 25 -10 25
-5 0 -10 -11 -10 -25z"/>
<path d="M6750 4238 c0 -46 -3 -191 -6 -323 -4 -132 -6 -249 -5 -260 1 -11 5
-78 10 -150 6 -98 8 -14 9 343 1 259 0 472 -3 472 -3 0 -5 -37 -5 -82z"/>
<path d="M6667 4143 c-4 -3 -7 -13 -7 -22 1 -13 3 -13 11 2 11 19 8 33 -4 20z"/>
<path d="M6080 3864 c0 -8 5 -12 10 -9 6 3 10 10 10 16 0 5 -4 9 -10 9 -5 0
-10 -7 -10 -16z"/>
<path d="M6017 3814 c-8 -8 1 -24 14 -24 5 0 9 7 9 15 0 15 -12 20 -23 9z"/>
<path d="M6147 3745 c-11 -23 -13 -36 -6 -41 15 -9 29 15 29 49 0 35 -3 34
-23 -8z"/>
<path d="M6527 3707 c-4 -10 -7 -26 -7 -35 1 -15 2 -15 11 1 6 10 9 25 7 35
-3 16 -4 15 -11 -1z"/>
<path d="M6111 3614 c0 -11 3 -14 6 -6 3 7 2 16 -1 19 -3 4 -6 -2 -5 -13z"/>
<path d="M6160 3486 c0 -2 7 -9 15 -16 12 -10 15 -10 15 4 0 9 -7 16 -15 16
-8 0 -15 -2 -15 -4z"/>
<path d="M5974 3465 c-9 -22 1 -29 15 -11 8 10 9 16 1 21 -5 3 -13 -1 -16 -10z"/>
<path d="M6207 3330 c-3 -11 -1 -20 4 -20 5 0 9 9 9 20 0 11 -2 20 -4 20 -2 0
-6 -9 -9 -20z"/>
<path d="M6071 3174 c0 -11 3 -14 6 -6 3 7 2 16 -1 19 -3 4 -6 -2 -5 -13z"/>
<path d="M6751 3150 c-2 -19 -3 -56 -2 -83 2 -26 -5 -69 -14 -96 -13 -36 -16
-57 -9 -85 6 -24 4 -84 -4 -165 -7 -69 -14 -149 -17 -177 -2 -27 -5 -54 -6
-60 -4 -21 1 -127 6 -122 3 3 8 34 10 69 3 61 14 119 36 199 6 20 9 147 7 295
-2 143 -5 244 -7 225z"/>
<path d="M6430 3140 c0 -5 5 -10 10 -10 6 0 10 5 10 10 0 6 -4 10 -10 10 -5 0
-10 -4 -10 -10z"/>
<path d="M6365 3104 c-9 -14 -14 -28 -11 -31 8 -9 46 27 46 44 0 21 -16 15
-35 -13z"/>
<path d="M5917 3100 c-3 -11 -1 -20 4 -20 5 0 9 9 9 20 0 11 -2 20 -4 20 -2 0
-6 -9 -9 -20z"/>
<path d="M652 3060 c0 -14 2 -19 5 -12 2 6 2 18 0 25 -3 6 -5 1 -5 -13z"/>
<path d="M6130 3040 c0 -5 5 -10 10 -10 6 0 10 5 10 10 0 6 -4 10 -10 10 -5 0
-10 -4 -10 -10z"/>
<path d="M6317 2993 c-10 -10 -8 -61 2 -67 5 -3 8 12 7 34 0 22 -1 40 -2 40 0
0 -4 -3 -7 -7z"/>
<path d="M6391 2972 c-8 -18 -11 -35 -8 -38 8 -9 29 35 25 54 -2 12 -8 7 -17
-16z"/>
<path d="M6613 2914 c-14 -14 -22 -28 -18 -32 4 -4 16 5 27 21 11 15 24 25 29
21 5 -3 9 0 9 5 0 19 -20 12 -47 -15z"/>
<path d="M6331 2854 c0 -11 3 -14 6 -6 3 7 2 16 -1 19 -3 4 -6 -2 -5 -13z"/>
<path d="M6280 2841 c0 -6 5 -13 10 -16 6 -3 10 1 10 9 0 9 -4 16 -10 16 -5 0
-10 -4 -10 -9z"/>
<path d="M6575 2839 c-11 -17 1 -21 15 -4 8 9 8 15 2 15 -6 0 -14 -5 -17 -11z"/>
<path d="M6240 2809 c0 -5 5 -7 10 -4 6 3 10 8 10 11 0 2 -4 4 -10 4 -5 0 -10
-5 -10 -11z"/>
<path d="M6192 2725 c-10 -21 -9 -25 3 -25 9 0 15 10 15 25 0 14 -2 25 -3 25
-2 0 -9 -11 -15 -25z"/>
<path d="M6580 2720 c0 -5 5 -10 11 -10 5 0 7 5 4 10 -3 6 -8 10 -11 10 -2 0
-4 -4 -4 -10z"/>
<path d="M6664 2719 c-3 -6 -1 -16 5 -22 8 -8 11 -5 11 11 0 24 -5 28 -16 11z"/>
<path d="M6296 2712 c-3 -6 -1 -14 5 -17 15 -10 25 3 12 16 -7 7 -13 7 -17 1z"/>
<path d="M6446 2671 c-4 -7 -5 -15 -2 -18 9 -9 19 4 14 18 -4 11 -6 11 -12 0z"/>
<path d="M6646 2664 c-4 -9 -4 -19 -1 -22 2 -3 7 3 11 12 4 9 4 19 1 22 -2 3
-7 -3 -11 -12z"/>
<path d="M6120 2630 c-8 -5 -11 -12 -7 -16 4 -4 13 -2 19 4 15 15 7 24 -12 12z"/>
<path d="M5575 2610 c-3 -5 1 -10 9 -10 9 0 16 5 16 10 0 6 -4 10 -9 10 -6 0
-13 -4 -16 -10z"/>
<path d="M6278 2595 c-3 -14 -1 -25 3 -25 5 0 9 4 9 9 0 5 3 16 6 25 3 9 2 16
-4 16 -5 0 -12 -11 -14 -25z"/>
<path d="M6341 2604 c0 -11 3 -14 6 -6 3 7 2 16 -1 19 -3 4 -6 -2 -5 -13z"/>
<path d="M6056 2601 c-4 -7 -5 -15 -2 -18 9 -9 19 4 14 18 -4 11 -6 11 -12 0z"/>
<path d="M5973 2568 c-12 -16 -23 -68 -14 -68 9 0 34 70 28 76 -2 2 -9 -1 -14
-8z"/>
<path d="M6565 2570 c3 -5 8 -10 11 -10 2 0 4 5 4 10 0 6 -5 10 -11 10 -5 0
-7 -4 -4 -10z"/>
<path d="M6165 2549 c-4 -11 -4 -23 0 -27 7 -7 25 17 25 36 0 20 -18 14 -25
-9z"/>
<path d="M6747 2498 c-2 -13 -7 -30 -9 -38 -3 -8 -3 -12 -1 -7 3 4 9 5 14 1 5
-3 9 11 9 30 0 41 -5 47 -13 14z"/>
<path d="M6456 2494 c-4 -9 -4 -19 -1 -22 2 -3 7 3 11 12 4 9 4 19 1 22 -2 3
-7 -3 -11 -12z"/>
<path d="M6183 2456 c1 -29 7 -51 14 -54 9 -2 11 5 6 30 -12 63 -23 76 -20 24z"/>
<path d="M5983 2440 c0 -25 2 -35 4 -22 2 12 2 32 0 45 -2 12 -4 2 -4 -23z"/>
<path d="M6518 2435 c-23 -30 -22 -35 1 -35 14 0 18 -5 14 -20 -3 -11 -9 -20
-13 -20 -9 0 -30 -46 -30 -65 0 -8 5 -15 11 -15 5 0 8 4 5 9 -10 16 12 61 30
61 11 0 15 8 13 28 -2 15 0 33 5 40 9 14 1 42 -11 42 -4 0 -16 -11 -25 -25z"/>
<path d="M5640 2440 c0 -5 7 -10 15 -10 8 0 15 5 15 10 0 6 -7 10 -15 10 -8 0
-15 -4 -15 -10z"/>
<path d="M6622 2428 c-7 -7 -12 -18 -12 -25 0 -11 4 -11 20 -1 11 7 20 18 20
25 0 16 -12 17 -28 1z"/>
<path d="M6101 2364 c0 -11 3 -14 6 -6 3 7 2 16 -1 19 -3 4 -6 -2 -5 -13z"/>
<path d="M5966 2334 c-4 -10 -1 -14 6 -12 15 5 23 28 10 28 -5 0 -13 -7 -16
-16z"/>
<path d="M6440 2316 c0 -9 5 -16 10 -16 6 0 10 4 10 9 0 6 -4 13 -10 16 -5 3
-10 -1 -10 -9z"/>
<path d="M6200 2269 c0 -35 15 -31 22 6 4 17 1 25 -8 25 -9 0 -14 -11 -14 -31z"/>
<path d="M6407 2283 c-10 -10 -8 -45 2 -39 11 7 21 46 12 46 -4 0 -11 -3 -14
-7z"/>
<path d="M6285 2253 c-4 -10 -9 -31 -10 -48 -1 -16 0 -24 2 -17 3 6 9 10 14 6
5 -3 9 13 9 35 0 45 -4 51 -15 24z"/>
<path d="M6122 2240 c0 -14 2 -19 5 -12 2 6 2 18 0 25 -3 6 -5 1 -5 -13z"/>
<path d="M6380 2231 c0 -5 -8 -12 -17 -14 -14 -4 -13 -5 4 -6 24 -1 39 14 23
24 -5 3 -10 2 -10 -4z"/>
<path d="M6110 2180 c0 -5 5 -10 10 -10 6 0 10 5 10 10 0 6 -4 10 -10 10 -5 0
-10 -4 -10 -10z"/>
<path d="M6650 2142 c0 -7 -3 -12 -7 -11 -11 2 -53 -13 -53 -18 0 -2 7 -11 15
-19 13 -13 15 -13 15 -1 0 8 10 21 23 30 12 8 19 18 15 23 -5 4 -8 2 -8 -4z"/>
<path d="M6621 2007 c-6 -8 -8 -17 -4 -21 4 -4 1 -12 -7 -17 -11 -8 -12 -12
-2 -16 6 -2 9 -10 6 -16 -5 -8 -4 -9 3 -2 11 10 28 85 20 85 -3 0 -10 -6 -16
-13z"/>
</g>
</svg>
